<svg width="240" height="80" viewBox="0 0 240 80" xmlns="http://www.w3.org/2000/svg">
  <path d="M91.03,28.5c-13.59,0-24.62,11.03-24.62,24.62c0,10.88,7.06,20.11,16.82,23.37c1.23,0.23,1.68-0.53,1.68-1.19 c0-0.58-0.02-2.13-0.03-4.18c-6.84,1.49-8.29-3.3-8.29-3.3c-1.12-2.84-2.73-3.6-2.73-3.6c-2.23-1.53,0.17-1.5,0.17-1.5 c2.47,0.17,3.77,2.54,3.77,2.54c2.2,3.76,5.76,2.67,7.17,2.05c0.22-1.59,0.86-2.67,1.56-3.29c-5.46-0.62-11.2-2.73-11.2-12.15 c0-2.68,0.96-4.88,2.53-6.6c-0.25-0.62-1.1-3.12,0.24-6.51c0,0,2.07-0.66,6.77,2.53c1.96-0.55,4.07-0.82,6.17-0.83 c2.09,0.01,4.2,0.28,6.17,0.83c4.7-3.19,6.76-2.53,6.76-2.53c1.34,3.39,0.5,5.89,0.24,6.51c1.58,1.72,2.53,3.92,2.53,6.6 c0,9.45-5.75,11.53-11.23,12.13c0.88,0.76,1.67,2.26,1.67,4.56c0,3.29-0.03,5.95-0.03,6.75c0,0.66,0.44,1.43,1.69,1.19 c9.76-3.26,16.81-12.49,16.81-23.36C115.65,39.53,104.62,28.5,91.03,28.5z" fill="#1B1F23"/>
  <text x="160" y="50" font-family="Arial, sans-serif" font-size="24" font-weight="bold" text-anchor="middle" fill="#1B1F23">TaileS</text>
</svg> 