<svg width="240" height="80" viewBox="0 0 240 80" xmlns="http://www.w3.org/2000/svg">
  <path d="M50,46 L50,34 L58,34 C61.3,34 64,36.7 64,40 C64,43.3 61.3,46 58,46 L50,46 Z M70,40 C70,33.4 64.6,28 58,28 L44,28 L44,52 L50,52 L50,52 L58,52 C64.6,52 70,46.6 70,40 Z" fill="#FF6B6B"/>
  <path d="M82,28 L88,28 L88,39 L100,28 L108,28 L93,42 L108,52 L100,52 L88,43 L88,52 L82,52 L82,28 Z" fill="#FF6B6B"/>
  <path d="M119,28 L125,28 L125,52 L119,52 L119,28 Z" fill="#FF6B6B"/>
  <path d="M137,46 L137,34 L145,34 C148.3,34 151,36.7 151,40 C151,43.3 148.3,46 145,46 L137,46 Z M157,40 C157,33.4 151.6,28 145,28 L131,28 L131,52 L137,52 L137,52 L145,52 C151.6,52 157,46.6 157,40 Z" fill="#FF6B6B"/>
  <path d="M168,28 L193,28 L193,34 L174,34 L174,37 L189,37 L189,43 L174,43 L174,46 L193,46 L193,52 L168,52 L168,28 Z" fill="#FF6B6B"/>
  <path d="M204,28 L211,28 L225,52 L218,52 L215,47 L200,47 L197,52 L190,52 L204,28 Z M212,41 L207.5,32 L203,41 L212,41 Z" fill="#FF6B6B"/>
</svg> 