<svg width="240" height="80" viewBox="0 0 240 80" xmlns="http://www.w3.org/2000/svg">
  <path d="M70,40 C70,50.49 61.49,59 51,59 C40.51,59 32,50.49 32,40 C32,29.51 40.51,21 51,21 C61.49,21 70,29.51 70,40 Z" fill="#8CC5B3"/>
  <path d="M115.5,32.5 L115.5,47.5 L101.5,47.5 L101.5,32.5 L115.5,32.5 Z M118.5,29.5 L98.5,29.5 L98.5,50.5 L118.5,50.5 L118.5,29.5 Z" fill="#2D3F5B"/>
  <path d="M127.2,30 L132.8,30 L132.8,50 L127.2,50 L127.2,30 Z" fill="#2D3F5B"/>
  <path d="M151.2,43.5 C151.2,47.1 148.3,50 144.7,50 C141.1,50 138.2,47.1 138.2,43.5 C138.2,39.9 141.1,37 144.7,37 C148.3,37 151.2,39.9 151.2,43.5 Z" fill="#2D3F5B"/>
  <path d="M169.5,30 L161.5,39.5 L169.5,50 L163,50 L155,39.5 L163,30 L169.5,30 Z" fill="#2D3F5B"/>
  <text x="90" y="60" font-family="Arial, sans-serif" font-size="12" font-weight="bold" text-anchor="middle" fill="#2D3F5B">Otclor</text>
</svg> 